<?xml version="1.0" encoding="utf-8"?>
<!-- Generator: Adobe Illustrator 17.1.0, SVG Export Plug-In . SVG Version: 6.00 Build 0)  -->
<!DOCTYPE svg PUBLIC "-//W3C//DTD SVG 1.1//EN" "http://www.w3.org/Graphics/SVG/1.1/DTD/svg11.dtd">
<svg version="1.1" id="Layer_1" xmlns="http://www.w3.org/2000/svg" xmlns:xlink="http://www.w3.org/1999/xlink" x="0px" y="0px"
	 viewBox="0 0 260 72" enable-background="new 0 0 260 72" xml:space="preserve">
<path fill="#CFDE00" d="M109.717,53.119c0.011-0.038,0.025-0.073,0.036-0.111c7.629,3.777,14.285,4.828,20.028,3.995
	C136.321,14.457,111.573,2.098,93.787,0C89.727,17.559,87.65,40.543,109.717,53.119z"/>
<g>
	<path fill="#878787" d="M2,49.048h4.139V16.986H2v-2.515h7.177v34.577h4.139v2.462H2V49.048z"/>
	<path fill="#878787" d="M16.249,40.509c0-7.02,3.981-11.787,10.268-11.787c6.916,0,9.587,5.868,9.587,10.949
		c0,0.42,0,0.995-0.105,1.467H19.287c0.21,5.239,3.144,8.487,8.225,8.487c2.776,0,5.396-0.943,7.492-2.253v2.619
		c-1.939,1.101-4.506,2.096-7.754,2.096C20.125,52.087,16.249,47.372,16.249,40.509z M19.339,38.833H33.17
		c-0.209-3.824-1.991-7.701-6.653-7.701C22.273,31.132,19.759,34.327,19.339,38.833z"/>
	<path fill="#878787" d="M39.507,45.591c0-5.606,5.605-6.81,10.059-6.81h4.977v-2.095c0-3.982-1.52-5.449-5.606-5.449
		c-2.776,0-5.605,0.681-7.596,1.467v-2.462c2.253-0.891,5.239-1.52,8.121-1.52c5.553,0,8.12,2.358,8.12,7.753v12.573h4.034v2.462
		h-6.967V48.63c-1.781,1.572-4.715,3.458-8.173,3.458C42.702,52.087,39.507,49.939,39.507,45.591z M54.543,46.272v-5.291h-4.925
		c-3.353,0-7.02,0.786-7.02,4.557c0,2.619,1.834,4.139,4.61,4.139C50.194,49.677,52.814,47.844,54.543,46.272z"/>
	<path fill="#878787" d="M63.97,49.048h4.243V31.813h-4.715v-2.515h4.715V21.02c0-4.977,2.987-7.126,7.544-7.126
		c1.257,0,2.62,0.158,3.772,0.42v2.358c-0.943-0.158-2.096-0.315-3.143-0.315c-3.51,0-5.186,1.467-5.186,4.768v8.173h6.444v2.515
		H71.2v17.235h5.082v2.462H63.97V49.048z"/>
</g>
<g>
	<path fill="#878787" d="M166.714,49.048h4.139V16.986h-4.139v-2.515h7.178v34.577h4.139v2.462h-11.317V49.048z"/>
	<path fill="#878787" d="M180.492,49.048h4.139V31.813h-4.139v-2.515h7.177v19.75h4.139v2.462h-11.315V49.048z M185.783,18.715
		c1.363,0,2.462,1.1,2.462,2.41c0,1.363-1.1,2.462-2.462,2.462c-1.31,0-2.41-1.1-2.41-2.462
		C183.373,19.815,184.472,18.715,185.783,18.715z"/>
	<path fill="#878787" d="M194.321,49.048h4.034V31.813h-4.034v-2.515h6.915v3.196c2.095-1.992,4.663-3.773,8.068-3.773
		c2.515,0,4.924,0.995,5.815,4.034c2.147-2.096,4.819-4.034,8.329-4.034c3.301,0,6.235,1.676,6.235,6.915v13.412h4.034v2.462
		h-11.054v-2.462h4.033V35.952c0-3.091-1.152-4.715-3.981-4.715c-2.673,0-4.977,1.467-7.282,3.562
		c0.052,0.315,0.052,0.629,0.052,0.995v13.255h4.087v2.462h-11.106v-2.462h4.033V35.952c0-3.091-1.152-4.715-3.981-4.715
		c-2.673,0-4.977,1.52-7.178,3.562v14.25h4.034v2.462h-11.054V49.048z"/>
	<path fill="#878787" d="M238.218,51.092V16.934h-4.139v-2.462h7.178v16.817c1.938-1.415,4.4-2.567,7.335-2.567
		c5.92,0,9.482,4.611,9.482,11.317c0,7.91-4.872,12.049-12.259,12.049C243.456,52.087,240.523,51.668,238.218,51.092z
		 M254.982,39.985c0-5.186-2.462-8.801-7.02-8.801c-2.672,0-4.977,1.257-6.706,2.567v15.35c1.257,0.263,2.986,0.524,4.453,0.524
		C251.839,49.625,254.982,45.906,254.982,39.985z"/>
</g>
<path fill="#69C9BA" d="M109.753,53.008c-1.461-35.793,25.775-40.594,48.865-34.646C156.712,36.729,141.79,68.87,109.753,53.008z"/>
<path fill="#5CB947" d="M112.61,54.314c0.858,0.36,1.701,0.681,2.533,0.971c0.075,0.026,0.15,0.055,0.224,0.08
	c0.817,0.28,1.619,0.524,2.411,0.74c0.08,0.022,0.162,0.046,0.242,0.067c0.788,0.209,1.562,0.385,2.325,0.532
	c0.075,0.015,0.151,0.03,0.225,0.044c0.766,0.142,1.52,0.254,2.261,0.337c0.064,0.007,0.128,0.014,0.192,0.021
	c0.75,0.079,1.488,0.129,2.213,0.15c0.046,0.001,0.092,0.002,0.139,0.003c0.739,0.017,1.466,0.007,2.178-0.034
	c0.025-0.001,0.049-0.003,0.074-0.005c0.731-0.044,1.45-0.116,2.153-0.218l0,0c2.551-16.597,0.33-28.584-4.371-37.176
	c-9.745,4.847-16.398,15.019-15.657,33.181c0.918,0.454,1.82,0.865,2.71,1.242C112.512,54.271,112.562,54.294,112.61,54.314z"/>
<g>
	<path fill="#FFFFFF" d="M94.597,43.744c0-7.228,5.185-11.314,11.156-15.085l-0.786-1.021c-2.906-3.771-5.185-6.835-5.185-10.842
		c0-5.107,3.693-9.978,10.764-9.978c7.385,0,10.37,5.185,10.37,9.899c0,5.578-4.085,9.114-9.035,12.492l12.807,15.085
		c2.671-3.771,4.164-8.485,4.792-13.906h-5.892v-3.535h15.477v3.535h-5.5c-0.707,5.814-2.514,12.178-6.127,17.127
		c2.279,2.514,4.872,5.028,7.699,5.028c0.629,0,1.572-0.157,2.436-0.55v3.85c-1.178,0.392-2.357,0.628-3.377,0.628
		c-3.694,0-6.758-2.671-9.586-5.814c-3.614,3.378-8.407,5.814-14.692,5.814C101.197,56.472,94.597,51.994,94.597,43.744z
		 M121.938,47.672l-13.67-16.106c-4.714,3.064-9.27,6.05-9.27,11.785c0,6.206,5.107,9.192,11.156,9.192
		C115.024,52.544,118.952,50.579,121.938,47.672z M104.182,16.639c0,1.571,0.55,4.007,4.242,8.485l1.021,1.178
		c4.007-2.593,7.385-5.421,7.385-9.663c0-3.222-1.964-6.286-6.206-6.286C106.853,10.354,104.182,12.711,104.182,16.639z"/>
</g>
</svg>
